<?xml version="1.0" encoding="UTF-8"?>
<svg id="Layer_2" xmlns="http://www.w3.org/2000/svg" viewBox="0 0 455.88 59.78">
  <defs>
    <style>
      .cls-1 {
        fill-rule: evenodd;
      }
    </style>
  </defs>
  <g id="Layer_1-2" data-name="Layer_1">
    <g>
      <path class="cls-1" d="M160.6,24.74c1.68.92,3.82,1.39,6.31,1.39s4.57-.47,6.32-1.39c1.78-.84,2.62-1.95,2.62-3.17,0-1.3-.84-2.31-2.62-3.16-1.75-.93-3.79-1.39-6.32-1.29-2.49-.09-4.56.36-6.31,1.29-1.76.85-2.59,1.86-2.59,3.16,0,1.22.83,2.33,2.59,3.17h0Z"/>
      <path class="cls-1" d="M287.56,24.63c1.68.84,3.82,1.31,6.33,1.31s4.56-.46,6.31-1.31c1.78-.92,2.61-1.96,2.61-3.16,0-1.3-.83-2.41-2.61-3.24-1.75-.84-3.9-1.31-6.31-1.31s-4.55.47-6.33,1.31c-1.75.83-2.59,1.94-2.59,3.24,0,1.2.84,2.24,2.59,3.16h0Z"/>
      <path class="cls-1" d="M451.23,49.35h-108.86c-22.83-2.91-24.94-12.81-25.56-16.37v-.03c0-.23-.1-2.16-.13-2.8.03-.1.07-.19.09-.29,2.01-10.7,10.29-16.67,25.3-18.24h108.9c2.57,0,4.63-2.08,4.63-4.65s-2.06-4.65-4.63-4.65h-109.22c-.16,0-.3.02-.46.03-24.26,2.48-31.7,15.37-33.63,25.76-.22.55-.32,1.16-.29,1.82l.23,4.09c0,.18,0,.15.01.32.7,4.11,2.25,7.71,4.59,10.82l-20.61-11.47L233.17,1.25c-1.46-1.19-3.57-1.44-5.3-.43l-78.59,45.83V5.49c0-2.56-2.08-4.64-4.66-4.64-.44,0-.85.08-1.25.19-.63.02-1.27.16-1.88.45l-69.72,33.64c-.33.16-.62.36-.9.58l-7.48,3.7,8.03,4.04c.68.35,1.4.49,2.12.48.76.04,1.54-.08,2.27-.43l64.17-30.96v41.44c0,1.39.61,2.61,1.56,3.47,1.43,1.69,3.91,2.18,5.89,1.01l27.76-16.18s.09.03.14.03l15.67-9.24h-.02l39.22-22.86,41.2,22.86h-72.36l-15.92,9.3h105.03l30.16,16.8c2.24,1.24,5.08.44,6.32-1.81.49-.88.65-1.84.55-2.77,4.57,1.88,10.01,3.21,16.29,3.99.18.02.37.04.57.04h109.2c2.57,0,4.65-2.08,4.65-4.66s-2.08-4.65-4.65-4.65h0Z"/>
      <path class="cls-1" d="M6.93.5C4.64-.66,1.84.27.69,2.55c-.32.63-.47,1.29-.49,1.95-.11.41-.2.83-.2,1.27v48.5c0,2.57,2.07,4.66,4.65,4.66s4.64-2.09,4.64-4.66V12.12l49.63,25.04,10.43-5.14L6.93.5h0Z"/>
    </g>
  </g>
</svg>